G04 Layer_Color=16711935*
%FSLAX25Y25*%
%MOIN*%
G70*
G01*
G75*
%ADD62C,0.00600*%
D62*
X125698Y639263D02*
X125698Y639263D01*
X125698Y639990D02*
X125698Y639990D01*
X125571Y641018D01*
X125182Y641978D01*
X124557Y642804D01*
X123740Y643441D01*
X122787Y643845D01*
X121761Y643988D01*
X125698Y639263D02*
X125825Y638236D01*
X126214Y637276D01*
X126839Y636449D01*
X127655Y635812D01*
X128609Y635409D01*
X129635Y635266D01*
X52470Y643927D02*
X51451Y643793D01*
X50501Y643400D01*
X49686Y642774D01*
X49060Y641959D01*
X48667Y641009D01*
X48533Y639990D01*
Y530541D02*
X48667Y529522D01*
X49060Y528573D01*
X49686Y527757D01*
X50501Y527132D01*
X51451Y526738D01*
X52470Y526604D01*
X233572D02*
X234591Y526738D01*
X235541Y527132D01*
X236356Y527757D01*
X236982Y528573D01*
X237375Y529522D01*
X237509Y530541D01*
Y631329D02*
X237375Y632348D01*
X236982Y633297D01*
X236356Y634113D01*
X235541Y634738D01*
X234591Y635132D01*
X233572Y635266D01*
X445371Y638925D02*
X445371Y638925D01*
X445371Y639651D02*
X445371Y639651D01*
X445244Y640679D01*
X444855Y641639D01*
X444231Y642466D01*
X443414Y643103D01*
X442460Y643506D01*
X441434Y643649D01*
X445371Y638925D02*
X445499Y637897D01*
X445888Y636937D01*
X446512Y636111D01*
X447329Y635474D01*
X448282Y635070D01*
X449308Y634927D01*
X372143Y643588D02*
X371124Y643454D01*
X370174Y643061D01*
X369359Y642435D01*
X368733Y641620D01*
X368340Y640670D01*
X368206Y639651D01*
Y530203D02*
X368340Y529184D01*
X368733Y528234D01*
X369359Y527419D01*
X370174Y526793D01*
X371124Y526400D01*
X372143Y526266D01*
X553245D02*
X554264Y526400D01*
X555214Y526793D01*
X556029Y527419D01*
X556655Y528234D01*
X557048Y529184D01*
X557182Y530203D01*
Y630990D02*
X557048Y632009D01*
X556655Y632959D01*
X556029Y633774D01*
X555214Y634400D01*
X554264Y634793D01*
X553245Y634927D01*
X234934Y392163D02*
X234800Y393182D01*
X234407Y394132D01*
X233781Y394947D01*
X232966Y395573D01*
X232016Y395966D01*
X230997Y396100D01*
Y287439D02*
X232016Y287573D01*
X232966Y287966D01*
X233781Y288592D01*
X234407Y289407D01*
X234800Y290357D01*
X234934Y291376D01*
X45958D02*
X46092Y290357D01*
X46485Y289407D01*
X47111Y288592D01*
X47926Y287966D01*
X48876Y287573D01*
X49895Y287439D01*
Y404762D02*
X48876Y404628D01*
X47926Y404234D01*
X47111Y403609D01*
X46485Y402793D01*
X46092Y401844D01*
X45958Y400825D01*
X123123Y400098D02*
X123250Y399070D01*
X123640Y398110D01*
X124264Y397284D01*
X125081Y396647D01*
X126034Y396243D01*
X127060Y396100D01*
X123123Y400825D02*
X122996Y401853D01*
X122607Y402812D01*
X121983Y403639D01*
X121166Y404276D01*
X120212Y404679D01*
X119186Y404822D01*
X123123Y400825D02*
X123123Y400825D01*
X123123Y400098D02*
X123123Y400098D01*
X558855Y392506D02*
X558721Y393525D01*
X558328Y394474D01*
X557702Y395290D01*
X556887Y395915D01*
X555937Y396309D01*
X554918Y396443D01*
Y287781D02*
X555937Y287916D01*
X556887Y288309D01*
X557702Y288934D01*
X558328Y289750D01*
X558721Y290700D01*
X558855Y291718D01*
X369879D02*
X370013Y290700D01*
X370407Y289750D01*
X371032Y288934D01*
X371848Y288309D01*
X372797Y287916D01*
X373816Y287781D01*
Y405104D02*
X372797Y404970D01*
X371848Y404577D01*
X371032Y403951D01*
X370407Y403136D01*
X370013Y402186D01*
X369879Y401167D01*
X447044Y400441D02*
X447172Y399413D01*
X447561Y398453D01*
X448185Y397626D01*
X449002Y396990D01*
X449956Y396586D01*
X450982Y396443D01*
X447044Y401167D02*
X446917Y402195D01*
X446528Y403155D01*
X445904Y403982D01*
X445087Y404618D01*
X444133Y405022D01*
X443107Y405165D01*
X447044Y401167D02*
X447044Y401167D01*
X447044Y400441D02*
X447044Y400441D01*
X234852Y151801D02*
X234717Y152820D01*
X234324Y153770D01*
X233698Y154585D01*
X232883Y155211D01*
X231933Y155604D01*
X230914Y155738D01*
Y47077D02*
X231933Y47211D01*
X232883Y47604D01*
X233698Y48230D01*
X234324Y49045D01*
X234717Y49995D01*
X234852Y51014D01*
X45875D02*
X46009Y49995D01*
X46403Y49045D01*
X47028Y48230D01*
X47844Y47604D01*
X48793Y47211D01*
X49812Y47077D01*
Y164400D02*
X48793Y164265D01*
X47844Y163872D01*
X47028Y163246D01*
X46403Y162431D01*
X46009Y161481D01*
X45875Y160462D01*
X123040Y159736D02*
X123168Y158708D01*
X123557Y157748D01*
X124181Y156922D01*
X124998Y156285D01*
X125952Y155881D01*
X126978Y155738D01*
X123040Y160463D02*
X122913Y161490D01*
X122524Y162450D01*
X121900Y163277D01*
X121083Y163914D01*
X120129Y164317D01*
X119103Y164460D01*
X123040Y160462D02*
X123040Y160463D01*
X123040Y159736D02*
X123040Y159736D01*
X559005Y150915D02*
X558871Y151934D01*
X558478Y152884D01*
X557852Y153699D01*
X557036Y154325D01*
X556087Y154718D01*
X555068Y154852D01*
Y46191D02*
X556087Y46325D01*
X557036Y46718D01*
X557852Y47344D01*
X558478Y48159D01*
X558871Y49109D01*
X559005Y50128D01*
X370029D02*
X370163Y49109D01*
X370556Y48159D01*
X371182Y47344D01*
X371997Y46718D01*
X372947Y46325D01*
X373966Y46191D01*
Y163514D02*
X372947Y163380D01*
X371997Y162986D01*
X371182Y162361D01*
X370556Y161545D01*
X370163Y160596D01*
X370029Y159577D01*
X447194Y158850D02*
X447321Y157822D01*
X447710Y156862D01*
X448335Y156036D01*
X449151Y155399D01*
X450105Y154995D01*
X451131Y154852D01*
X447194Y159577D02*
X447067Y160605D01*
X446678Y161565D01*
X446053Y162391D01*
X445237Y163028D01*
X444283Y163431D01*
X443257Y163575D01*
X447194Y159577D02*
X447194Y159577D01*
X447194Y158850D02*
X447194Y158850D01*
X125698Y639263D02*
Y639990D01*
X129635Y635266D02*
X233572D01*
X52470Y643927D02*
X121761Y643989D01*
X48533Y530541D02*
Y639990D01*
X52470Y526604D02*
X233572D01*
X237509Y530541D02*
Y631329D01*
X445371Y638925D02*
Y639651D01*
X449308Y634927D02*
X553245D01*
X372143Y643588D02*
X441434Y643650D01*
X368206Y530203D02*
Y639651D01*
X372143Y526266D02*
X553245D01*
X557182Y530203D02*
Y630990D01*
X234934Y291376D02*
Y392163D01*
X49895Y287439D02*
X230997D01*
X45958Y291376D02*
Y400825D01*
X49895Y404762D02*
X119186Y404824D01*
X127060Y396100D02*
X230997D01*
X123123Y400098D02*
Y400825D01*
X558855Y291718D02*
Y392506D01*
X373816Y287781D02*
X554918D01*
X369879Y291718D02*
Y401167D01*
X373816Y405104D02*
X443107Y405166D01*
X450981Y396443D02*
X554918D01*
X447044Y400441D02*
Y401167D01*
X234852Y51014D02*
Y151801D01*
X49812Y47077D02*
X230914D01*
X45875Y51014D02*
Y160462D01*
X49812Y164400D02*
X119103Y164461D01*
X126978Y155738D02*
X230914D01*
X123040Y159736D02*
Y160463D01*
X559005Y50128D02*
Y150915D01*
X373966Y46191D02*
X555068D01*
X370029Y50128D02*
Y159577D01*
X373966Y163514D02*
X443257Y163575D01*
X451131Y154852D02*
X555068D01*
X447194Y158850D02*
Y159577D01*
M02*
