G04 Layer_Color=8421504*
%FSLAX25Y25*%
%MOIN*%
G70*
G01*
G75*
%ADD10C,0.11811*%
%ADD11R,0.27953X0.27953*%
%ADD12R,0.01968X0.02362*%
%ADD13R,0.02992X0.07874*%
%ADD14R,0.02362X0.03543*%
%ADD15C,0.03000*%
%ADD16C,0.00050*%
%ADD17R,0.03839X0.12795*%
%ADD18R,0.97244X0.17323*%
%ADD19R,0.05512X0.02559*%
%ADD20R,0.02559X0.05512*%
%ADD21R,0.01968X0.01575*%
%ADD22R,0.06693X0.07087*%
%ADD23R,0.02559X0.05512*%
G04:AMPARAMS|DCode=24|XSize=55.12mil|YSize=25.59mil|CornerRadius=0mil|HoleSize=0mil|Usage=FLASHONLY|Rotation=315.000|XOffset=0mil|YOffset=0mil|HoleType=Round|Shape=Rectangle|*
%AMROTATEDRECTD24*
4,1,4,-0.02854,0.01044,-0.01044,0.02854,0.02854,-0.01044,0.01044,-0.02854,-0.02854,0.01044,0.0*
%
%ADD24ROTATEDRECTD24*%

%ADD25R,0.11024X0.11024*%
%ADD26R,0.02362X0.07874*%
%ADD27R,0.03937X0.01181*%
%ADD28R,0.03937X0.02756*%
%ADD29R,0.18898X0.15551*%
%ADD30R,0.10236X0.01575*%
%ADD31R,0.27756X0.27756*%
%ADD32R,0.08661X0.07087*%
%ADD33R,0.07087X0.13386*%
%ADD34R,0.03150X0.03150*%
%ADD35R,0.04626X0.03150*%
%ADD36R,0.12205X0.05905*%
%ADD37R,0.25197X0.25197*%
%ADD38R,0.06693X0.06299*%
%ADD39R,0.15354X0.07087*%
%ADD40C,0.01319*%
%ADD41C,0.01315*%
%ADD42R,0.02362X0.01968*%
%ADD43R,0.03937X0.05512*%
%ADD44R,0.10827X0.05512*%
%ADD45R,0.07087X0.03937*%
%ADD46R,0.03740X0.03347*%
%ADD47R,0.03543X0.03740*%
%ADD48R,0.19095X0.19095*%
%ADD49C,0.01181*%
%ADD50R,0.02362X0.02362*%
%ADD51R,0.03543X0.02362*%
%ADD52R,0.01181X0.03150*%
%ADD53R,0.02362X0.10236*%
G04:AMPARAMS|DCode=54|XSize=43.31mil|YSize=88.58mil|CornerRadius=10.83mil|HoleSize=0mil|Usage=FLASHONLY|Rotation=180.000|XOffset=0mil|YOffset=0mil|HoleType=Round|Shape=RoundedRectangle|*
%AMROUNDEDRECTD54*
21,1,0.04331,0.06693,0,0,180.0*
21,1,0.02165,0.08858,0,0,180.0*
1,1,0.02165,-0.01083,0.03347*
1,1,0.02165,0.01083,0.03347*
1,1,0.02165,0.01083,-0.03347*
1,1,0.02165,-0.01083,-0.03347*
%
%ADD54ROUNDEDRECTD54*%
G04:AMPARAMS|DCode=55|XSize=41.34mil|YSize=43.31mil|CornerRadius=10.34mil|HoleSize=0mil|Usage=FLASHONLY|Rotation=180.000|XOffset=0mil|YOffset=0mil|HoleType=Round|Shape=RoundedRectangle|*
%AMROUNDEDRECTD55*
21,1,0.04134,0.02264,0,0,180.0*
21,1,0.02067,0.04331,0,0,180.0*
1,1,0.02067,-0.01034,0.01132*
1,1,0.02067,0.01034,0.01132*
1,1,0.02067,0.01034,-0.01132*
1,1,0.02067,-0.01034,-0.01132*
%
%ADD55ROUNDEDRECTD55*%
G04:AMPARAMS|DCode=56|XSize=23.62mil|YSize=35.43mil|CornerRadius=0mil|HoleSize=0mil|Usage=FLASHONLY|Rotation=315.000|XOffset=0mil|YOffset=0mil|HoleType=Round|Shape=Rectangle|*
%AMROTATEDRECTD56*
4,1,4,-0.02088,-0.00418,0.00418,0.02088,0.02088,0.00418,-0.00418,-0.02088,-0.02088,-0.00418,0.0*
%
%ADD56ROTATEDRECTD56*%

G04:AMPARAMS|DCode=57|XSize=19.68mil|YSize=23.62mil|CornerRadius=0mil|HoleSize=0mil|Usage=FLASHONLY|Rotation=135.000|XOffset=0mil|YOffset=0mil|HoleType=Round|Shape=Rectangle|*
%AMROTATEDRECTD57*
4,1,4,0.01531,0.00139,-0.00139,-0.01531,-0.01531,-0.00139,0.00139,0.01531,0.01531,0.00139,0.0*
%
%ADD57ROTATEDRECTD57*%

%ADD58R,0.02165X0.03150*%
%ADD59R,0.03200X0.03000*%
%ADD60R,0.02362X0.03347*%
%ADD61R,0.03937X0.03347*%
G36*
X463614Y372705D02*
X464598D01*
Y365815D01*
X463614D01*
Y365028D01*
X461646D01*
Y365815D01*
X460661D01*
Y372705D01*
X461646D01*
Y373492D01*
X463614D01*
Y372705D01*
D02*
G37*
G36*
X524147Y348433D02*
X518635D01*
Y350992D01*
X524147D01*
Y348433D01*
D02*
G37*
G36*
X460458Y363216D02*
X459762Y362520D01*
X460319Y361963D01*
X458927Y360571D01*
X458370Y361128D01*
X457674Y360432D01*
X452802Y365304D01*
X453498Y366000D01*
X452941Y366557D01*
X454333Y367949D01*
X454890Y367392D01*
X455586Y368088D01*
X460458Y363216D01*
D02*
G37*
G36*
X402803Y384390D02*
X403787D01*
Y376516D01*
X402803D01*
Y376122D01*
X400835D01*
Y376516D01*
X399850D01*
Y384390D01*
X400835D01*
Y384784D01*
X402803D01*
Y384390D01*
D02*
G37*
G36*
X473894Y371819D02*
X474681D01*
Y369850D01*
X473894D01*
Y368866D01*
X467004D01*
Y369850D01*
X466217D01*
Y371819D01*
X467004D01*
Y372803D01*
X473894D01*
Y371819D01*
D02*
G37*
G36*
X461575Y335244D02*
X462362D01*
Y333276D01*
X461575D01*
Y332291D01*
X454685D01*
Y333276D01*
X453898D01*
Y335244D01*
X454685D01*
Y336228D01*
X461575D01*
Y335244D01*
D02*
G37*
G36*
X426075Y302744D02*
X426862D01*
Y300776D01*
X426075D01*
Y299791D01*
X419185D01*
Y300776D01*
X418398D01*
Y302744D01*
X419185D01*
Y303728D01*
X426075D01*
Y302744D01*
D02*
G37*
G36*
X138771Y90524D02*
Y89539D01*
X139558Y89539D01*
Y87571D01*
X138771Y87571D01*
Y86587D01*
X131881Y86587D01*
Y87571D01*
X131094D01*
Y89539D01*
X131881D01*
Y90524D01*
X138771Y90524D01*
D02*
G37*
G36*
X410618Y309734D02*
X414850D01*
Y299793D01*
X410421D01*
Y303829D01*
X406878D01*
Y299793D01*
X402350D01*
Y309734D01*
X406681D01*
Y313770D01*
X410618D01*
Y309734D01*
D02*
G37*
G36*
X461575Y330244D02*
X462362D01*
Y328276D01*
X461575D01*
Y327291D01*
X454685D01*
Y328276D01*
X453898D01*
Y330244D01*
X454685D01*
Y331228D01*
X461575D01*
Y330244D01*
D02*
G37*
G36*
X400083Y311705D02*
X401067D01*
Y304815D01*
X400083D01*
Y304028D01*
X398114D01*
Y304815D01*
X397130D01*
Y311705D01*
X398114D01*
Y312492D01*
X400083D01*
Y311705D01*
D02*
G37*
G36*
X461941Y611189D02*
X462925D01*
Y604299D01*
X461941D01*
Y603512D01*
X459972D01*
Y604299D01*
X458988D01*
Y611189D01*
X459972D01*
Y611976D01*
X461941D01*
Y611189D01*
D02*
G37*
G36*
X522474Y586917D02*
X516962D01*
Y589476D01*
X522474D01*
Y586917D01*
D02*
G37*
G36*
X458784Y601700D02*
X458089Y601004D01*
X458645Y600447D01*
X457253Y599055D01*
X456697Y599612D01*
X456001Y598916D01*
X451129Y603788D01*
X451825Y604484D01*
X451268Y605041D01*
X452660Y606433D01*
X453217Y605876D01*
X453913Y606572D01*
X458784Y601700D01*
D02*
G37*
G36*
X401130Y622874D02*
X402114D01*
Y615000D01*
X401130D01*
Y614606D01*
X399161D01*
Y615000D01*
X398177D01*
Y622874D01*
X399161D01*
Y623268D01*
X401130D01*
Y622874D01*
D02*
G37*
G36*
X472221Y610303D02*
X473008D01*
Y608335D01*
X472221D01*
Y607350D01*
X465331D01*
Y608335D01*
X464543D01*
Y610303D01*
X465331D01*
Y611287D01*
X472221D01*
Y610303D01*
D02*
G37*
G36*
X459902Y573728D02*
X460689D01*
Y571760D01*
X459902D01*
Y570776D01*
X453012D01*
Y571760D01*
X452224D01*
Y573728D01*
X453012D01*
Y574713D01*
X459902D01*
Y573728D01*
D02*
G37*
G36*
X408945Y548218D02*
X413177D01*
Y538277D01*
X408748D01*
Y542313D01*
X405205D01*
Y538277D01*
X400677D01*
Y548218D01*
X405008D01*
Y552254D01*
X408945D01*
Y548218D01*
D02*
G37*
G36*
X424402Y541228D02*
X425189D01*
Y539260D01*
X424402D01*
Y538276D01*
X417512D01*
Y539260D01*
X416724D01*
Y541228D01*
X417512D01*
Y542213D01*
X424402D01*
Y541228D01*
D02*
G37*
G36*
X398409Y550189D02*
X399394D01*
Y543299D01*
X398409D01*
Y542512D01*
X396441D01*
Y543299D01*
X395457D01*
Y550189D01*
X396441D01*
Y550976D01*
X398409D01*
Y550189D01*
D02*
G37*
G36*
X141428Y570051D02*
Y569067D01*
X142216Y569067D01*
Y567098D01*
X141428Y567098D01*
Y566114D01*
X134539Y566114D01*
Y567098D01*
X133751D01*
Y569067D01*
X134539D01*
Y570051D01*
X141428Y570051D01*
D02*
G37*
G36*
X459902Y568728D02*
X460689D01*
Y566760D01*
X459902D01*
Y565776D01*
X453012D01*
Y566760D01*
X452224D01*
Y568728D01*
X453012D01*
Y569713D01*
X459902D01*
Y568728D01*
D02*
G37*
D10*
X485335Y739961D02*
D03*
X390846D02*
D03*
X485335Y826575D02*
D03*
X390846D02*
D03*
X256988D02*
D03*
X351476D02*
D03*
X256988Y739961D02*
D03*
X351476D02*
D03*
X123130Y826575D02*
D03*
X217618D02*
D03*
X123130Y739961D02*
D03*
X217618D02*
D03*
X351279Y866142D02*
D03*
X256791D02*
D03*
X351279Y952756D02*
D03*
X256791D02*
D03*
X485138Y866142D02*
D03*
X390650D02*
D03*
X485138Y952756D02*
D03*
X390650D02*
D03*
X217323Y866142D02*
D03*
X122835D02*
D03*
X217323Y952756D02*
D03*
X122835D02*
D03*
X60055Y621134D02*
D03*
Y542394D02*
D03*
X213598D02*
D03*
X195882Y621134D02*
D03*
X379728Y620795D02*
D03*
Y542055D02*
D03*
X533272D02*
D03*
X515555Y620795D02*
D03*
X57480Y381968D02*
D03*
Y303228D02*
D03*
X211024D02*
D03*
X193307Y381968D02*
D03*
X517228Y382311D02*
D03*
X534945Y303571D02*
D03*
X381401D02*
D03*
Y382311D02*
D03*
X193224Y141606D02*
D03*
X210941Y62866D02*
D03*
X57398D02*
D03*
Y141606D02*
D03*
X517378Y140720D02*
D03*
X535094Y61980D02*
D03*
X381551D02*
D03*
Y140720D02*
D03*
D11*
X303248Y786024D02*
D03*
X169390Y786221D02*
D03*
X303051Y912402D02*
D03*
X436909Y912205D02*
D03*
X169095Y912402D02*
D03*
D12*
X426780Y98169D02*
D03*
X430717D02*
D03*
X426780Y94169D02*
D03*
X430717D02*
D03*
X116846Y328017D02*
D03*
X112909D02*
D03*
X102709Y335417D02*
D03*
X106646D02*
D03*
X102709Y339417D02*
D03*
X106646D02*
D03*
X115409Y322217D02*
D03*
X119346D02*
D03*
X199438Y349370D02*
D03*
X138272Y375917D02*
D03*
X142209D02*
D03*
X179133Y349370D02*
D03*
X183070D02*
D03*
X178709Y315417D02*
D03*
X182646D02*
D03*
X186709D02*
D03*
X190646D02*
D03*
X125597Y333339D02*
D03*
X121660D02*
D03*
X149677Y365417D02*
D03*
X145740D02*
D03*
X170677D02*
D03*
X166740D02*
D03*
X179740Y363417D02*
D03*
X183677D02*
D03*
X179740Y358417D02*
D03*
X183677D02*
D03*
X179446Y383017D02*
D03*
X175509D02*
D03*
X101240Y382917D02*
D03*
X105177D02*
D03*
D13*
X494799Y146191D02*
D03*
Y130443D02*
D03*
X489799D02*
D03*
Y146191D02*
D03*
X484799Y130443D02*
D03*
Y146191D02*
D03*
X479799Y130443D02*
D03*
Y146191D02*
D03*
X474799Y130443D02*
D03*
Y146191D02*
D03*
X459799D02*
D03*
Y130443D02*
D03*
X454799Y146191D02*
D03*
Y130443D02*
D03*
X449799Y146191D02*
D03*
Y130443D02*
D03*
X444799Y146191D02*
D03*
Y130443D02*
D03*
X439799Y146191D02*
D03*
Y130443D02*
D03*
X434799Y146191D02*
D03*
Y130443D02*
D03*
X429799Y146191D02*
D03*
Y130443D02*
D03*
X424799Y146191D02*
D03*
Y130443D02*
D03*
X419799Y146191D02*
D03*
Y130443D02*
D03*
X414799Y146191D02*
D03*
Y130443D02*
D03*
X409799Y146191D02*
D03*
Y130443D02*
D03*
X404799Y146191D02*
D03*
Y130443D02*
D03*
X399799D02*
D03*
Y146191D02*
D03*
X464799D02*
D03*
Y130443D02*
D03*
X469799Y146191D02*
D03*
Y130443D02*
D03*
X494799Y70604D02*
D03*
Y54856D02*
D03*
X489799D02*
D03*
Y70604D02*
D03*
X484799Y54856D02*
D03*
Y70604D02*
D03*
X479799Y54856D02*
D03*
Y70604D02*
D03*
X474799Y54856D02*
D03*
Y70604D02*
D03*
X459799D02*
D03*
Y54856D02*
D03*
X454799Y70604D02*
D03*
Y54856D02*
D03*
X449799Y70604D02*
D03*
Y54856D02*
D03*
X444799Y70604D02*
D03*
Y54856D02*
D03*
X439799Y70604D02*
D03*
Y54856D02*
D03*
X434799Y70604D02*
D03*
Y54856D02*
D03*
X429799Y70604D02*
D03*
Y54856D02*
D03*
X424799Y70604D02*
D03*
Y54856D02*
D03*
X419799Y70604D02*
D03*
Y54856D02*
D03*
X414799Y70604D02*
D03*
Y54856D02*
D03*
X409799Y70604D02*
D03*
Y54856D02*
D03*
X404799Y70604D02*
D03*
Y54856D02*
D03*
X399799D02*
D03*
Y70604D02*
D03*
X464799D02*
D03*
Y54856D02*
D03*
X469799Y70604D02*
D03*
Y54856D02*
D03*
D14*
X462432Y87669D02*
D03*
X456527D02*
D03*
X95756Y301417D02*
D03*
X101661D02*
D03*
X137161Y328917D02*
D03*
X131256D02*
D03*
X143575Y370492D02*
D03*
X149480D02*
D03*
X137161Y333917D02*
D03*
X131256D02*
D03*
D15*
X414468Y846260D02*
X457776D01*
X371161Y763583D02*
Y802953D01*
X422342Y720276D02*
X457776D01*
X505020Y763583D02*
Y802953D01*
X485335Y720276D02*
X505020D01*
X371161D02*
X390846D01*
X505020Y826575D02*
Y846260D01*
Y720276D02*
Y739961D01*
X485335Y846260D02*
X505020D01*
X371161D02*
X390846D01*
X371161Y826575D02*
Y846260D01*
Y720276D02*
Y739961D01*
X237303Y720276D02*
Y739961D01*
Y826575D02*
Y846260D01*
X256988D01*
X351476D02*
X371161D01*
Y720276D02*
Y739961D01*
Y826575D02*
Y846260D01*
X237303Y720276D02*
X256988D01*
X351476D02*
X371161D01*
Y763583D02*
Y802953D01*
X288484Y720276D02*
X323917D01*
X237303Y763583D02*
Y802953D01*
X280610Y846260D02*
X323917D01*
X103445Y720276D02*
Y739961D01*
Y826575D02*
Y846260D01*
X123130D01*
X217618D02*
X237303D01*
Y720276D02*
Y739961D01*
Y826575D02*
Y846260D01*
X103445Y720276D02*
X123130D01*
X217618D02*
X237303D01*
Y763583D02*
Y802953D01*
X154626Y720276D02*
X190059D01*
X103445Y763583D02*
Y802953D01*
X146752Y846260D02*
X190059D01*
X280413Y972441D02*
X323721D01*
X237106Y889764D02*
Y929134D01*
X288287Y846457D02*
X323721D01*
X370965Y889764D02*
Y929134D01*
X351279Y846457D02*
X370965D01*
X237106D02*
X256791D01*
X370965Y952756D02*
Y972441D01*
Y846457D02*
Y866142D01*
X351279Y972441D02*
X370965D01*
X237106D02*
X256791D01*
X237106Y952756D02*
Y972441D01*
Y846457D02*
Y866142D01*
X414272Y972441D02*
X457579D01*
X370965Y889764D02*
Y929134D01*
X422146Y846457D02*
X457579D01*
X504823Y889764D02*
Y929134D01*
X485138Y846457D02*
X504823D01*
X370965D02*
X390650D01*
X504823Y952756D02*
Y972441D01*
Y846457D02*
Y866142D01*
X485138Y972441D02*
X504823D01*
X370965D02*
X390650D01*
X370965Y952756D02*
Y972441D01*
Y846457D02*
Y866142D01*
X504823Y846457D02*
Y866142D01*
Y952756D02*
Y972441D01*
Y889764D02*
Y929134D01*
X146457Y972441D02*
X189764D01*
X103150Y889764D02*
Y929134D01*
X154331Y846457D02*
X189764D01*
X237008Y889764D02*
Y929134D01*
X217323Y846457D02*
X237008D01*
X103150D02*
X122835D01*
X237008Y952756D02*
Y972441D01*
Y846457D02*
Y866142D01*
X217323Y972441D02*
X237008D01*
X103150D02*
X122835D01*
X103150Y952756D02*
Y972441D01*
Y846457D02*
Y866142D01*
X237008Y889764D02*
Y929134D01*
Y952756D02*
Y972441D01*
Y846457D02*
Y866142D01*
X297933Y563189D02*
Y612402D01*
X297933Y479528D02*
Y533661D01*
Y641929D02*
Y696063D01*
X2657Y641929D02*
Y696063D01*
Y479528D02*
Y533661D01*
X128150Y479528D02*
X201969D01*
X2657Y479528D02*
X71555D01*
X248721D02*
X297933D01*
X248721Y696063D02*
X297933D01*
X2657D02*
X71555D01*
X2657Y563189D02*
Y612402D01*
X128150Y696063D02*
X201969D01*
X617606Y562850D02*
Y612063D01*
X617606Y479189D02*
Y533323D01*
Y641590D02*
Y695724D01*
X322331Y641590D02*
Y695724D01*
Y479189D02*
Y533323D01*
X447823Y479189D02*
X521642D01*
X322331Y479189D02*
X391228D01*
X568394D02*
X617606D01*
X568394Y695724D02*
X617606D01*
X322331D02*
X391228D01*
X322331Y562850D02*
Y612063D01*
X447823Y695724D02*
X521642D01*
X125575Y456898D02*
X199394D01*
X83Y324024D02*
Y373236D01*
X83Y456898D02*
X68980D01*
X246146D02*
X295358D01*
X246146Y240362D02*
X295358D01*
X83D02*
X68980D01*
X125575Y240362D02*
X199394D01*
X83Y240362D02*
Y294496D01*
Y402764D02*
Y456898D01*
X295358Y402764D02*
Y456898D01*
Y240362D02*
Y294496D01*
X295358Y324024D02*
Y373236D01*
X449496Y457240D02*
X523315D01*
X324004Y324366D02*
Y373579D01*
X324004Y457240D02*
X392901D01*
X570067D02*
X619279D01*
X570067Y240705D02*
X619279D01*
X324004D02*
X392901D01*
X449496Y240705D02*
X523315D01*
X324004Y240705D02*
Y294839D01*
Y403106D02*
Y457240D01*
X619279Y403106D02*
Y457240D01*
Y240705D02*
Y294839D01*
X619280Y324366D02*
Y373579D01*
X125492Y216535D02*
X199311D01*
X0Y83661D02*
Y132874D01*
X0Y216535D02*
X68898D01*
X246063D02*
X295276D01*
X246063Y0D02*
X295276D01*
X0D02*
X68898D01*
X125492Y-0D02*
X199311D01*
X0Y0D02*
Y54134D01*
Y162402D02*
Y216535D01*
X295276Y162402D02*
Y216535D01*
Y0D02*
Y54134D01*
X295276Y83661D02*
Y132874D01*
X449646Y215650D02*
X523464D01*
X324154Y82776D02*
Y131988D01*
X324153Y215650D02*
X393051D01*
X570217D02*
X619429D01*
X570217Y-886D02*
X619429D01*
X324153D02*
X393051D01*
X449646Y-886D02*
X523464D01*
X324153Y-886D02*
Y53248D01*
Y161516D02*
Y215650D01*
X619429Y161516D02*
Y215650D01*
Y-886D02*
Y53248D01*
X619429Y82776D02*
Y131988D01*
D16*
X134539Y570051D02*
X141428Y570051D01*
X134539Y566114D02*
X141428Y566114D01*
X134539Y566114D02*
Y567098D01*
X133751D02*
X134539D01*
X133751D02*
Y569067D01*
X134539D01*
Y570051D01*
X141428Y569067D02*
Y570051D01*
Y569067D02*
X142216Y569067D01*
Y567098D02*
Y569067D01*
X141428Y567098D02*
X142216Y567098D01*
X141428Y566114D02*
Y567098D01*
X104496Y575862D02*
X110008D01*
X104496Y573303D02*
X110008D01*
X104496D02*
Y575862D01*
X110008Y573303D02*
Y575862D01*
X104496Y579862D02*
X110008D01*
X104496Y577303D02*
X110008D01*
X104496D02*
Y579862D01*
X110008Y577303D02*
Y579862D01*
X422701Y620465D02*
Y623024D01*
X428213Y620465D02*
Y623024D01*
X422701Y620465D02*
X428213D01*
X422701Y623024D02*
X428213D01*
X413177Y610000D02*
X415736D01*
X413177Y604488D02*
X415736D01*
X413177D02*
Y610000D01*
X415736Y604488D02*
Y610000D01*
X417677D02*
X420236D01*
X417677Y604488D02*
X420236D01*
X417677D02*
Y610000D01*
X420236Y604488D02*
Y610000D01*
X399197Y608022D02*
X401756D01*
X399197Y602510D02*
X401756D01*
X399197D02*
Y608022D01*
X401756Y602510D02*
Y608022D01*
X496969Y623124D02*
X502481D01*
X496969Y620565D02*
X502481D01*
Y623124D01*
X496969Y620565D02*
Y623124D01*
X492236Y611988D02*
Y617500D01*
X489677Y611988D02*
Y617500D01*
Y611988D02*
X492236D01*
X489677Y617500D02*
X492236D01*
X496470Y587441D02*
Y592953D01*
X499029Y587441D02*
Y592953D01*
X496470D02*
X499029D01*
X496470Y587441D02*
X499029D01*
X507670Y587409D02*
Y592921D01*
X510229Y587409D02*
Y592921D01*
X507670D02*
X510229D01*
X507670Y587409D02*
X510229D01*
X449623Y598810D02*
X453520Y594912D01*
X451432Y600619D02*
X455330Y596722D01*
X449623Y598810D02*
X451432Y600619D01*
X453520Y594912D02*
X455330Y596722D01*
X453012Y570776D02*
X459902D01*
X453012Y574713D02*
X459902D01*
X453012Y573728D02*
Y574713D01*
X452224Y573728D02*
X453012D01*
X452224Y571760D02*
Y573728D01*
Y571760D02*
X453012D01*
Y570776D02*
Y571760D01*
X459902Y570776D02*
Y571760D01*
X460689D01*
Y573728D01*
X459902D02*
X460689D01*
X459902D02*
Y574713D01*
X481736Y561488D02*
Y567000D01*
X479177Y561488D02*
Y567000D01*
Y561488D02*
X481736D01*
X479177Y567000D02*
X481736D01*
X492136Y561488D02*
Y567000D01*
X489577Y561488D02*
Y567000D01*
Y561488D02*
X492136D01*
X489577Y567000D02*
X492136D01*
X500181Y579698D02*
X504079Y575800D01*
X498372Y577888D02*
X502269Y573991D01*
X504079Y575800D01*
X498372Y577888D02*
X500181Y579698D01*
X501201Y595965D02*
X506713D01*
X501201Y598524D02*
X506713D01*
X501201Y595965D02*
Y598524D01*
X506713Y595965D02*
Y598524D01*
X501201Y600965D02*
X506713D01*
X501201Y603524D02*
X506713D01*
X501201Y600965D02*
Y603524D01*
X506713Y600965D02*
Y603524D01*
X488201Y605524D02*
X493713D01*
X488201Y602965D02*
X493713D01*
Y605524D01*
X488201Y602965D02*
Y605524D01*
X481177Y604488D02*
Y610000D01*
X483736Y604488D02*
Y610000D01*
X481177D02*
X483736D01*
X481177Y604488D02*
X483736D01*
X451129Y603788D02*
X456001Y598916D01*
X453913Y606572D02*
X458784Y601700D01*
X453217Y605876D02*
X453913Y606572D01*
X452660Y606433D02*
X453217Y605876D01*
X451268Y605041D02*
X452660Y606433D01*
X451268Y605041D02*
X451825Y604484D01*
X451129Y603788D02*
X451825Y604484D01*
X456001Y598916D02*
X456697Y599612D01*
X457253Y599055D01*
X458645Y600447D01*
X458089Y601004D02*
X458645Y600447D01*
X458089Y601004D02*
X458784Y601700D01*
X465331Y611287D02*
X472221D01*
X465331Y607350D02*
X472221D01*
Y608335D01*
X473008D01*
Y610303D01*
X472221D02*
X473008D01*
X472221D02*
Y611287D01*
X465331Y610303D02*
Y611287D01*
X464543Y610303D02*
X465331D01*
X464543Y608335D02*
Y610303D01*
Y608335D02*
X465331D01*
Y607350D02*
Y608335D01*
X467201Y605524D02*
X472713D01*
X467201Y602965D02*
X472713D01*
Y605524D01*
X467201Y602965D02*
Y605524D01*
X445356Y577510D02*
Y583022D01*
X442797Y577510D02*
Y583022D01*
Y577510D02*
X445356D01*
X442797Y583022D02*
X445356D01*
X443120Y573445D02*
X448632D01*
X443120Y570886D02*
X448632D01*
Y573445D01*
X443120Y570886D02*
Y573445D01*
X453012Y565776D02*
X459902D01*
X453012Y569713D02*
X459902D01*
X453012Y568728D02*
Y569713D01*
X452224Y568728D02*
X453012D01*
X452224Y566760D02*
Y568728D01*
Y566760D02*
X453012D01*
Y565776D02*
Y566760D01*
X459902Y565776D02*
Y566760D01*
X460689D01*
Y568728D01*
X459902D02*
X460689D01*
X459902D02*
Y569713D01*
X508169Y552965D02*
X513681D01*
X508169Y555524D02*
X513681D01*
X508169Y552965D02*
Y555524D01*
X513681Y552965D02*
Y555524D01*
X500169Y552965D02*
X505681D01*
X500169Y555524D02*
X505681D01*
X500169Y552965D02*
Y555524D01*
X505681Y552965D02*
Y555524D01*
X399394Y543299D02*
Y550189D01*
X395457Y543299D02*
Y550189D01*
Y543299D02*
X396441D01*
Y542512D02*
Y543299D01*
Y542512D02*
X398409D01*
Y543299D01*
X399394D01*
X398409Y550189D02*
X399394D01*
X398409D02*
Y550976D01*
X396441D02*
X398409D01*
X396441Y550189D02*
Y550976D01*
X395457Y550189D02*
X396441D01*
X417512Y542213D02*
X424402D01*
X417512Y538276D02*
X424402D01*
Y539260D01*
X425189D01*
Y541228D01*
X424402D02*
X425189D01*
X424402D02*
Y542213D01*
X417512Y541228D02*
Y542213D01*
X416724Y541228D02*
X417512D01*
X416724Y539260D02*
Y541228D01*
Y539260D02*
X417512D01*
Y538276D02*
Y539260D01*
X500593Y586917D02*
X506105D01*
X500593Y589476D02*
X506105D01*
X500593Y586917D02*
Y589476D01*
X506105Y586917D02*
Y589476D01*
X462925Y604299D02*
Y611189D01*
X458988Y604299D02*
Y611189D01*
Y604299D02*
X459972D01*
Y603512D02*
Y604299D01*
Y603512D02*
X461941D01*
Y604299D01*
X462925D01*
X461941Y611189D02*
X462925D01*
X461941D02*
Y611976D01*
X459972D02*
X461941D01*
X459972Y611189D02*
Y611976D01*
X458988Y611189D02*
X459972D01*
X459732Y613465D02*
X465244D01*
X459732Y616024D02*
X465244D01*
X459732Y613465D02*
Y616024D01*
X465244Y613465D02*
Y616024D01*
X522474Y586917D02*
Y589476D01*
X516962Y586917D02*
Y589476D01*
Y586917D02*
X522474D01*
X516962Y589476D02*
X522474D01*
X436869Y559765D02*
X442381D01*
X436869Y562324D02*
X442381D01*
X436869Y559765D02*
Y562324D01*
X442381Y559765D02*
Y562324D01*
X424169Y572965D02*
X429681D01*
X424169Y575524D02*
X429681D01*
X424169Y572965D02*
Y575524D01*
X429681Y572965D02*
Y575524D01*
X424169Y576965D02*
X429681D01*
X424169Y579524D02*
X429681D01*
X424169Y576965D02*
Y579524D01*
X429681Y576965D02*
Y579524D01*
X405008Y548218D02*
Y552254D01*
X408945D01*
Y548218D02*
Y552254D01*
X400677Y542313D02*
Y548218D01*
X413177Y542313D02*
Y548218D01*
X408945D02*
X413177D01*
Y538277D02*
Y542313D01*
X408748Y538277D02*
X413177D01*
X408748D02*
Y542313D01*
X405205Y538277D02*
Y542313D01*
X401661Y538277D02*
X405205D01*
X400677D02*
Y542313D01*
Y538277D02*
X401661D01*
X405205Y542313D02*
X408748D01*
X400677Y548218D02*
X405008D01*
X409902Y583232D02*
Y586382D01*
X405276D02*
X409902D01*
X405276Y583232D02*
Y586382D01*
X402520Y583232D02*
Y586382D01*
X399370D02*
X402520D01*
X399370Y583232D02*
Y586382D01*
X402520Y574177D02*
Y577327D01*
X399370Y574177D02*
X402520D01*
X399370D02*
Y577327D01*
X406850Y574177D02*
Y577327D01*
Y574177D02*
X410000D01*
Y577327D01*
X409902Y583232D02*
X410787D01*
X410000Y577327D02*
X410787D01*
Y583232D01*
X402520D02*
X405276D01*
X398583D02*
X399370D01*
X398583Y577327D02*
Y583232D01*
Y577327D02*
X399370D01*
X402520D02*
X406850D01*
X406752Y555201D02*
X422106D01*
Y558744D01*
X406752Y562287D02*
X422106D01*
Y558744D02*
Y562287D01*
X406752Y555201D02*
Y562287D01*
X434369Y568124D02*
X439881D01*
X434369Y565565D02*
X439881D01*
Y568124D01*
X434369Y565565D02*
Y568124D01*
X436042Y329639D02*
X441554D01*
X436042Y327080D02*
X441554D01*
Y329639D01*
X436042Y327080D02*
Y329639D01*
X408425Y316717D02*
X423779D01*
Y320260D01*
X408425Y323803D02*
X423779D01*
Y320260D02*
Y323803D01*
X408425Y316717D02*
Y323803D01*
X411575Y344748D02*
Y347898D01*
X406949D02*
X411575D01*
X406949Y344748D02*
Y347898D01*
X404193Y344748D02*
Y347898D01*
X401043D02*
X404193D01*
X401043Y344748D02*
Y347898D01*
X404193Y335693D02*
Y338843D01*
X401043Y335693D02*
X404193D01*
X401043D02*
Y338843D01*
X408524Y335693D02*
Y338843D01*
Y335693D02*
X411673D01*
Y338843D01*
X411575Y344748D02*
X412461D01*
X411673Y338843D02*
X412461D01*
Y344748D01*
X404193D02*
X406949D01*
X400256D02*
X401043D01*
X400256Y338843D02*
Y344748D01*
Y338843D02*
X401043D01*
X404193D02*
X408524D01*
X406681Y309734D02*
Y313770D01*
X410618D01*
Y309734D02*
Y313770D01*
X402350Y303829D02*
Y309734D01*
X414850Y303829D02*
Y309734D01*
X410618D02*
X414850D01*
Y299793D02*
Y303829D01*
X410421Y299793D02*
X414850D01*
X410421D02*
Y303829D01*
X406878Y299793D02*
Y303829D01*
X403335Y299793D02*
X406878D01*
X402350D02*
Y303829D01*
Y299793D02*
X403335D01*
X406878Y303829D02*
X410421D01*
X402350Y309734D02*
X406681D01*
X425843Y338480D02*
X431354D01*
X425843Y341039D02*
X431354D01*
X425843Y338480D02*
Y341039D01*
X431354Y338480D02*
Y341039D01*
X425843Y334480D02*
X431354D01*
X425843Y337039D02*
X431354D01*
X425843Y334480D02*
Y337039D01*
X431354Y334480D02*
Y337039D01*
X438543Y321280D02*
X444054D01*
X438543Y323839D02*
X444054D01*
X438543Y321280D02*
Y323839D01*
X444054Y321280D02*
Y323839D01*
X524147Y348433D02*
Y350992D01*
X518635Y348433D02*
Y350992D01*
Y348433D02*
X524147D01*
X518635Y350992D02*
X524147D01*
X461406Y374980D02*
X466917D01*
X461406Y377539D02*
X466917D01*
X461406Y374980D02*
Y377539D01*
X466917Y374980D02*
Y377539D01*
X464598Y365815D02*
Y372705D01*
X460661Y365815D02*
Y372705D01*
Y365815D02*
X461646D01*
Y365028D02*
Y365815D01*
Y365028D02*
X463614D01*
Y365815D01*
X464598D01*
X463614Y372705D02*
X464598D01*
X463614D02*
Y373492D01*
X461646D02*
X463614D01*
X461646Y372705D02*
Y373492D01*
X460661Y372705D02*
X461646D01*
X502267Y348433D02*
X507778D01*
X502267Y350992D02*
X507778D01*
X502267Y348433D02*
Y350992D01*
X507778Y348433D02*
Y350992D01*
X419185Y303728D02*
X426075D01*
X419185Y299791D02*
X426075D01*
Y300776D01*
X426862D01*
Y302744D01*
X426075D02*
X426862D01*
X426075D02*
Y303728D01*
X419185Y302744D02*
Y303728D01*
X418398Y302744D02*
X419185D01*
X418398Y300776D02*
Y302744D01*
Y300776D02*
X419185D01*
Y299791D02*
Y300776D01*
X401067Y304815D02*
Y311705D01*
X397130Y304815D02*
Y311705D01*
Y304815D02*
X398114D01*
Y304028D02*
Y304815D01*
Y304028D02*
X400083D01*
Y304815D01*
X401067D01*
X400083Y311705D02*
X401067D01*
X400083D02*
Y312492D01*
X398114D02*
X400083D01*
X398114Y311705D02*
Y312492D01*
X397130Y311705D02*
X398114D01*
X501842Y314480D02*
X507354D01*
X501842Y317039D02*
X507354D01*
X501842Y314480D02*
Y317039D01*
X507354Y314480D02*
Y317039D01*
X509842Y314480D02*
X515354D01*
X509842Y317039D02*
X515354D01*
X509842Y314480D02*
Y317039D01*
X515354Y314480D02*
Y317039D01*
X454685Y327291D02*
X461575D01*
X454685Y331228D02*
X461575D01*
X454685Y330244D02*
Y331228D01*
X453898Y330244D02*
X454685D01*
X453898Y328276D02*
Y330244D01*
Y328276D02*
X454685D01*
Y327291D02*
Y328276D01*
X461575Y327291D02*
Y328276D01*
X462362D01*
Y330244D01*
X461575D02*
X462362D01*
X461575D02*
Y331228D01*
X444794Y334961D02*
X450306D01*
X444794Y332402D02*
X450306D01*
Y334961D01*
X444794Y332402D02*
Y334961D01*
X447029Y339025D02*
Y344537D01*
X444470Y339025D02*
Y344537D01*
Y339025D02*
X447029D01*
X444470Y344537D02*
X447029D01*
X468874Y367039D02*
X474386D01*
X468874Y364480D02*
X474386D01*
Y367039D01*
X468874Y364480D02*
Y367039D01*
X467004Y372803D02*
X473894D01*
X467004Y368866D02*
X473894D01*
Y369850D01*
X474681D01*
Y371819D01*
X473894D02*
X474681D01*
X473894D02*
Y372803D01*
X467004Y371819D02*
Y372803D01*
X466217Y371819D02*
X467004D01*
X466217Y369850D02*
Y371819D01*
Y369850D02*
X467004D01*
Y368866D02*
Y369850D01*
X452802Y365304D02*
X457674Y360432D01*
X455586Y368088D02*
X460458Y363216D01*
X454890Y367392D02*
X455586Y368088D01*
X454333Y367949D02*
X454890Y367392D01*
X452941Y366557D02*
X454333Y367949D01*
X452941Y366557D02*
X453498Y366000D01*
X452802Y365304D02*
X453498Y366000D01*
X457674Y360432D02*
X458370Y361128D01*
X458927Y360571D01*
X460319Y361963D01*
X459762Y362520D02*
X460319Y361963D01*
X459762Y362520D02*
X460458Y363216D01*
X482850Y366004D02*
Y371516D01*
X485409Y366004D02*
Y371516D01*
X482850D02*
X485409D01*
X482850Y366004D02*
X485409D01*
X489874Y367039D02*
X495386D01*
X489874Y364480D02*
X495386D01*
Y367039D01*
X489874Y364480D02*
Y367039D01*
X502874Y362480D02*
X508386D01*
X502874Y365039D02*
X508386D01*
X502874Y362480D02*
Y365039D01*
X508386Y362480D02*
Y365039D01*
X502874Y357480D02*
X508386D01*
X502874Y360039D02*
X508386D01*
X502874Y357480D02*
Y360039D01*
X508386Y357480D02*
Y360039D01*
X501854Y341213D02*
X505752Y337316D01*
X500045Y339404D02*
X503942Y335506D01*
X505752Y337316D01*
X500045Y339404D02*
X501854Y341213D01*
X493809Y323004D02*
Y328516D01*
X491250Y323004D02*
Y328516D01*
Y323004D02*
X493809D01*
X491250Y328516D02*
X493809D01*
X483409Y323004D02*
Y328516D01*
X480850Y323004D02*
Y328516D01*
Y323004D02*
X483409D01*
X480850Y328516D02*
X483409D01*
X454685Y332291D02*
X461575D01*
X454685Y336228D02*
X461575D01*
X454685Y335244D02*
Y336228D01*
X453898Y335244D02*
X454685D01*
X453898Y333276D02*
Y335244D01*
Y333276D02*
X454685D01*
Y332291D02*
Y333276D01*
X461575Y332291D02*
Y333276D01*
X462362D01*
Y335244D01*
X461575D02*
X462362D01*
X461575D02*
Y336228D01*
X451296Y360325D02*
X455194Y356428D01*
X453106Y362135D02*
X457003Y358237D01*
X451296Y360325D02*
X453106Y362135D01*
X455194Y356428D02*
X457003Y358237D01*
X509343Y348925D02*
Y354437D01*
X511902Y348925D02*
Y354437D01*
X509343D02*
X511902D01*
X509343Y348925D02*
X511902D01*
X498143Y348957D02*
Y354468D01*
X500702Y348957D02*
Y354468D01*
X498143D02*
X500702D01*
X498143Y348957D02*
X500702D01*
X493909Y373504D02*
Y379016D01*
X491350Y373504D02*
Y379016D01*
Y373504D02*
X493909D01*
X491350Y379016D02*
X493909D01*
X498642Y384639D02*
X504154D01*
X498642Y382080D02*
X504154D01*
Y384639D01*
X498642Y382080D02*
Y384639D01*
X400870Y369537D02*
X403429D01*
X400870Y364025D02*
X403429D01*
X400870D02*
Y369537D01*
X403429Y364025D02*
Y369537D01*
X419350Y371516D02*
X421909D01*
X419350Y366004D02*
X421909D01*
X419350D02*
Y371516D01*
X421909Y366004D02*
Y371516D01*
X414850D02*
X417409D01*
X414850Y366004D02*
X417409D01*
X414850D02*
Y371516D01*
X417409Y366004D02*
Y371516D01*
X424374Y381980D02*
Y384539D01*
X429886Y381980D02*
Y384539D01*
X424374Y381980D02*
X429886D01*
X424374Y384539D02*
X429886D01*
X101839Y100335D02*
X107350D01*
X101839Y97776D02*
X107350D01*
X101839D02*
Y100335D01*
X107350Y97776D02*
Y100335D01*
X101839Y96335D02*
X107350D01*
X101839Y93776D02*
X107350D01*
X101839D02*
Y96335D01*
X107350Y93776D02*
Y96335D01*
X131881Y90524D02*
X138771Y90524D01*
X131881Y86587D02*
X138771Y86587D01*
X131881Y86587D02*
Y87571D01*
X131094D02*
X131881D01*
X131094D02*
Y89539D01*
X131881D01*
Y90524D01*
X138771Y89539D02*
Y90524D01*
Y89539D02*
X139558Y89539D01*
Y87571D02*
Y89539D01*
X138771Y87571D02*
X139558Y87571D01*
X138771Y86587D02*
Y87571D01*
D17*
X176344Y543144D02*
D03*
X75261D02*
D03*
X176343Y618730D02*
D03*
X75260D02*
D03*
X173686Y139203D02*
D03*
X72603D02*
D03*
X173686Y63616D02*
D03*
X72603D02*
D03*
D18*
X125803Y543144D02*
D03*
X125803Y618730D02*
D03*
X123146Y139203D02*
D03*
X123146Y63616D02*
D03*
D19*
X107252Y574583D02*
D03*
Y578583D02*
D03*
X425457Y621744D02*
D03*
X499725Y621844D02*
D03*
X503957Y597244D02*
D03*
Y602244D02*
D03*
X490957Y604244D02*
D03*
X469957D02*
D03*
X445876Y572166D02*
D03*
X510925Y554244D02*
D03*
X502925D02*
D03*
X503349Y588197D02*
D03*
X462488Y614744D02*
D03*
X439625Y561044D02*
D03*
X426925Y574244D02*
D03*
Y578244D02*
D03*
X437125Y566844D02*
D03*
X438798Y328360D02*
D03*
X428598Y339760D02*
D03*
Y335760D02*
D03*
X441298Y322560D02*
D03*
X464161Y376260D02*
D03*
X505022Y349713D02*
D03*
X504598Y315760D02*
D03*
X512598D02*
D03*
X447550Y333681D02*
D03*
X471630Y365760D02*
D03*
X492630D02*
D03*
X505630Y363760D02*
D03*
Y358760D02*
D03*
X501398Y383360D02*
D03*
X427130Y383260D02*
D03*
X104595Y99055D02*
D03*
Y95055D02*
D03*
D20*
X414457Y607244D02*
D03*
X418957D02*
D03*
X400476Y605266D02*
D03*
X490957Y614744D02*
D03*
X480457Y564244D02*
D03*
X490857D02*
D03*
X444076Y580266D02*
D03*
X445750Y341781D02*
D03*
X492530Y325760D02*
D03*
X482130D02*
D03*
X492630Y376260D02*
D03*
X402149Y366781D02*
D03*
X420630Y368760D02*
D03*
X416130D02*
D03*
D21*
X414979Y614350D02*
D03*
X418523D02*
D03*
X414979Y623012D02*
D03*
X418523D02*
D03*
X416652Y375866D02*
D03*
X420196D02*
D03*
X416652Y384527D02*
D03*
X420196D02*
D03*
D22*
X416750Y618680D02*
D03*
X418424Y380196D02*
D03*
D23*
X497749Y590197D02*
D03*
X508949Y590165D02*
D03*
X482457Y607244D02*
D03*
X484130Y368760D02*
D03*
X510623Y351681D02*
D03*
X499423Y351713D02*
D03*
D24*
X452476Y597766D02*
D03*
X501225Y576844D02*
D03*
X502898Y338360D02*
D03*
X454150Y359281D02*
D03*
D25*
X517750Y568497D02*
D03*
X519423Y330012D02*
D03*
D26*
X524442Y568497D02*
D03*
X511056Y568497D02*
D03*
X526115Y330013D02*
D03*
X512730D02*
D03*
D27*
X517749Y562395D02*
D03*
X519422Y323910D02*
D03*
D28*
X517749Y575387D02*
D03*
X519422Y336902D02*
D03*
D29*
X506976Y539917D02*
D03*
X508650Y301433D02*
D03*
D30*
X506976Y548480D02*
D03*
X508650Y309996D02*
D03*
D31*
X479576Y585197D02*
D03*
X481249Y346713D02*
D03*
D32*
X499457Y614744D02*
D03*
X501130Y376260D02*
D03*
D33*
X437976Y577263D02*
D03*
X439649Y338779D02*
D03*
D34*
X400945Y584807D02*
D03*
Y575752D02*
D03*
X408425Y575752D02*
D03*
X402618Y346323D02*
D03*
Y337268D02*
D03*
X410098Y337268D02*
D03*
D35*
X407588Y584807D02*
D03*
X409262Y346323D02*
D03*
D36*
X404684Y580278D02*
D03*
X406357Y341793D02*
D03*
D37*
X450957Y543244D02*
D03*
X452630Y304760D02*
D03*
D38*
X466902Y535370D02*
D03*
Y551118D02*
D03*
X435012Y535370D02*
D03*
X435012Y551118D02*
D03*
X468575Y296886D02*
D03*
Y312634D02*
D03*
X436685Y296886D02*
D03*
X436685Y312634D02*
D03*
D39*
X414429Y558744D02*
D03*
X416102Y320259D02*
D03*
D40*
X426279Y799016D02*
D03*
X428248D02*
D03*
X430217D02*
D03*
X432185D02*
D03*
X434154D02*
D03*
X436122D02*
D03*
X438091D02*
D03*
X440059D02*
D03*
X442028D02*
D03*
X443996D02*
D03*
X445964D02*
D03*
X447933D02*
D03*
X424311Y797047D02*
D03*
X429232D02*
D03*
X431201D02*
D03*
X433169D02*
D03*
X435138D02*
D03*
X437106D02*
D03*
X439075D02*
D03*
X441043D02*
D03*
X444980D02*
D03*
X447933Y796063D02*
D03*
X424311Y795079D02*
D03*
X426279Y794095D02*
D03*
X447933D02*
D03*
X424311Y793110D02*
D03*
X449902D02*
D03*
X426279Y792126D02*
D03*
X424311Y791142D02*
D03*
X449902D02*
D03*
X426279Y790158D02*
D03*
X447933D02*
D03*
X424311Y789173D02*
D03*
X449902D02*
D03*
X426279Y788189D02*
D03*
X447933D02*
D03*
X424311Y787205D02*
D03*
X449902D02*
D03*
X447933Y786221D02*
D03*
X424311Y785236D02*
D03*
X449902D02*
D03*
X447933Y784252D02*
D03*
X424311Y783268D02*
D03*
X449902D02*
D03*
X426279Y782283D02*
D03*
X447933D02*
D03*
X449902Y781299D02*
D03*
X426279Y780315D02*
D03*
X447933D02*
D03*
X424311Y779331D02*
D03*
X447933Y778346D02*
D03*
X449902Y777362D02*
D03*
X426279Y778346D02*
D03*
X424311Y775394D02*
D03*
X431201D02*
D03*
X433169D02*
D03*
X435138D02*
D03*
X437106D02*
D03*
X439075D02*
D03*
X441043D02*
D03*
X443012D02*
D03*
X444980D02*
D03*
X446949D02*
D03*
X449902D02*
D03*
X426279Y773425D02*
D03*
X430217D02*
D03*
X432185D02*
D03*
X434154D02*
D03*
X436122D02*
D03*
X438091D02*
D03*
X440059D02*
D03*
X442028D02*
D03*
X428248D02*
D03*
X292421Y799016D02*
D03*
X294390D02*
D03*
X296358D02*
D03*
X298327D02*
D03*
X300295D02*
D03*
X302264D02*
D03*
X304232D02*
D03*
X306201D02*
D03*
X308169D02*
D03*
X310138D02*
D03*
X312106D02*
D03*
X314075D02*
D03*
X290453Y797047D02*
D03*
X295374D02*
D03*
X297342D02*
D03*
X299311D02*
D03*
X301279D02*
D03*
X303248D02*
D03*
X305217D02*
D03*
X307185D02*
D03*
X311122D02*
D03*
X314075Y796063D02*
D03*
X290453Y795079D02*
D03*
X292421Y794095D02*
D03*
X314075D02*
D03*
X290453Y793110D02*
D03*
X316043D02*
D03*
X292421Y792126D02*
D03*
X290453Y791142D02*
D03*
X316043D02*
D03*
X292421Y790158D02*
D03*
X314075D02*
D03*
X290453Y789173D02*
D03*
X316043D02*
D03*
X292421Y788189D02*
D03*
X314075D02*
D03*
X290453Y787205D02*
D03*
X316043D02*
D03*
X314075Y786221D02*
D03*
X290453Y785236D02*
D03*
X316043D02*
D03*
X314075Y784252D02*
D03*
X290453Y783268D02*
D03*
X316043D02*
D03*
X292421Y782283D02*
D03*
X314075D02*
D03*
X316043Y781299D02*
D03*
X292421Y780315D02*
D03*
X314075D02*
D03*
X290453Y779331D02*
D03*
X314075Y778346D02*
D03*
X316043Y777362D02*
D03*
X292421Y778346D02*
D03*
X290453Y775394D02*
D03*
X297342D02*
D03*
X299311D02*
D03*
X301279D02*
D03*
X303248D02*
D03*
X305217D02*
D03*
X307185D02*
D03*
X309154D02*
D03*
X311122D02*
D03*
X313090D02*
D03*
X316043D02*
D03*
X292421Y773425D02*
D03*
X296358D02*
D03*
X298327D02*
D03*
X300295D02*
D03*
X302264D02*
D03*
X304232D02*
D03*
X306201D02*
D03*
X308169D02*
D03*
X294390D02*
D03*
X158563Y799016D02*
D03*
X160531D02*
D03*
X162500D02*
D03*
X164469D02*
D03*
X166437D02*
D03*
X168405D02*
D03*
X170374D02*
D03*
X172343D02*
D03*
X174311D02*
D03*
X176279D02*
D03*
X178248D02*
D03*
X180217D02*
D03*
X156595Y797047D02*
D03*
X161516D02*
D03*
X163484D02*
D03*
X165453D02*
D03*
X167421D02*
D03*
X169390D02*
D03*
X171358D02*
D03*
X173327D02*
D03*
X177264D02*
D03*
X180217Y796063D02*
D03*
X156595Y795079D02*
D03*
X158563Y794095D02*
D03*
X180217D02*
D03*
X156595Y793110D02*
D03*
X182185D02*
D03*
X158563Y792126D02*
D03*
X156595Y791142D02*
D03*
X182185D02*
D03*
X158563Y790158D02*
D03*
X180217D02*
D03*
X156595Y789173D02*
D03*
X182185D02*
D03*
X158563Y788189D02*
D03*
X180217D02*
D03*
X156595Y787205D02*
D03*
X182185D02*
D03*
X180217Y786221D02*
D03*
X156595Y785236D02*
D03*
X182185D02*
D03*
X180217Y784252D02*
D03*
X156595Y783268D02*
D03*
X182185D02*
D03*
X158563Y782283D02*
D03*
X180217D02*
D03*
X182185Y781299D02*
D03*
X158563Y780315D02*
D03*
X180217D02*
D03*
X156595Y779331D02*
D03*
X180217Y778346D02*
D03*
X182185Y777362D02*
D03*
X158563Y778346D02*
D03*
X156595Y775394D02*
D03*
X163484D02*
D03*
X165453D02*
D03*
X167421D02*
D03*
X169390D02*
D03*
X171358D02*
D03*
X173327D02*
D03*
X175295D02*
D03*
X177264D02*
D03*
X179232D02*
D03*
X182185D02*
D03*
X158563Y773425D02*
D03*
X162500D02*
D03*
X164469D02*
D03*
X166437D02*
D03*
X168405D02*
D03*
X170374D02*
D03*
X172343D02*
D03*
X174311D02*
D03*
X160531D02*
D03*
X292224Y925197D02*
D03*
X294193D02*
D03*
X296161D02*
D03*
X298130D02*
D03*
X300098D02*
D03*
X302067D02*
D03*
X304035D02*
D03*
X306004D02*
D03*
X307972D02*
D03*
X309941D02*
D03*
X311909D02*
D03*
X313878D02*
D03*
X290256Y923228D02*
D03*
X295177D02*
D03*
X297146D02*
D03*
X299114D02*
D03*
X301083D02*
D03*
X303051D02*
D03*
X305020D02*
D03*
X306988D02*
D03*
X310925D02*
D03*
X313878Y922244D02*
D03*
X290256Y921260D02*
D03*
X292224Y920276D02*
D03*
X313878D02*
D03*
X290256Y919291D02*
D03*
X315846D02*
D03*
X292224Y918307D02*
D03*
X290256Y917323D02*
D03*
X315846D02*
D03*
X292224Y916339D02*
D03*
X313878D02*
D03*
X290256Y915354D02*
D03*
X315846D02*
D03*
X292224Y914370D02*
D03*
X313878D02*
D03*
X290256Y913386D02*
D03*
X315846D02*
D03*
X313878Y912402D02*
D03*
X290256Y911417D02*
D03*
X315846D02*
D03*
X313878Y910433D02*
D03*
X290256Y909449D02*
D03*
X315846D02*
D03*
X292224Y908465D02*
D03*
X313878D02*
D03*
X315846Y907480D02*
D03*
X292224Y906496D02*
D03*
X313878D02*
D03*
X290256Y905512D02*
D03*
X313878Y904528D02*
D03*
X315846Y903543D02*
D03*
X292224Y904527D02*
D03*
X290256Y901575D02*
D03*
X297146D02*
D03*
X299114D02*
D03*
X301083D02*
D03*
X303051D02*
D03*
X305020D02*
D03*
X306988D02*
D03*
X308957D02*
D03*
X310925D02*
D03*
X312894D02*
D03*
X315846D02*
D03*
X292224Y899606D02*
D03*
X296161D02*
D03*
X298130D02*
D03*
X300098D02*
D03*
X302067D02*
D03*
X304035D02*
D03*
X306004D02*
D03*
X307972D02*
D03*
X294193D02*
D03*
X426083Y925197D02*
D03*
X428051D02*
D03*
X430020D02*
D03*
X431988D02*
D03*
X433957D02*
D03*
X435925D02*
D03*
X437894D02*
D03*
X439862D02*
D03*
X441831D02*
D03*
X443799D02*
D03*
X445768D02*
D03*
X447736D02*
D03*
X424114Y923228D02*
D03*
X429035D02*
D03*
X431004D02*
D03*
X432972D02*
D03*
X434941D02*
D03*
X436909D02*
D03*
X438878D02*
D03*
X440846D02*
D03*
X444783D02*
D03*
X447736Y922244D02*
D03*
X424114Y921260D02*
D03*
X426083Y920276D02*
D03*
X447736D02*
D03*
X424114Y919291D02*
D03*
X449705D02*
D03*
X426083Y918307D02*
D03*
X424114Y917323D02*
D03*
X449705D02*
D03*
X426083Y916339D02*
D03*
X447736D02*
D03*
X424114Y915354D02*
D03*
X449705D02*
D03*
X426083Y914370D02*
D03*
X447736D02*
D03*
X424114Y913386D02*
D03*
X449705D02*
D03*
X447736Y912402D02*
D03*
X424114Y911417D02*
D03*
X449705D02*
D03*
X447736Y910433D02*
D03*
X424114Y909449D02*
D03*
X449705D02*
D03*
X426083Y908465D02*
D03*
X447736D02*
D03*
X449705Y907480D02*
D03*
X426083Y906496D02*
D03*
X447736D02*
D03*
X424114Y905512D02*
D03*
X447736Y904528D02*
D03*
X449705Y903543D02*
D03*
X426083Y904527D02*
D03*
X424114Y901575D02*
D03*
X431004D02*
D03*
X432972D02*
D03*
X434941D02*
D03*
X436909D02*
D03*
X438878D02*
D03*
X440846D02*
D03*
X442815D02*
D03*
X444783D02*
D03*
X446752D02*
D03*
X449705D02*
D03*
X426083Y899606D02*
D03*
X430020D02*
D03*
X431988D02*
D03*
X433957D02*
D03*
X435925D02*
D03*
X437894D02*
D03*
X439862D02*
D03*
X441831D02*
D03*
X428051D02*
D03*
X158268Y925197D02*
D03*
X160236D02*
D03*
X162205D02*
D03*
X164173D02*
D03*
X166142D02*
D03*
X168110D02*
D03*
X170079D02*
D03*
X172047D02*
D03*
X174016D02*
D03*
X175984D02*
D03*
X177953D02*
D03*
X179921D02*
D03*
X156299Y923228D02*
D03*
X161221D02*
D03*
X163189D02*
D03*
X165157D02*
D03*
X167126D02*
D03*
X169095D02*
D03*
X171063D02*
D03*
X173031D02*
D03*
X176969D02*
D03*
X179921Y922244D02*
D03*
X156299Y921260D02*
D03*
X158268Y920276D02*
D03*
X179921D02*
D03*
X156299Y919291D02*
D03*
X181890D02*
D03*
X158268Y918307D02*
D03*
X156299Y917323D02*
D03*
X181890D02*
D03*
X158268Y916339D02*
D03*
X179921D02*
D03*
X156299Y915354D02*
D03*
X181890D02*
D03*
X158268Y914370D02*
D03*
X179921D02*
D03*
X156299Y913386D02*
D03*
X181890D02*
D03*
X179921Y912402D02*
D03*
X156299Y911417D02*
D03*
X181890D02*
D03*
X179921Y910433D02*
D03*
X156299Y909449D02*
D03*
X181890D02*
D03*
X158268Y908465D02*
D03*
X179921D02*
D03*
X181890Y907480D02*
D03*
X158268Y906496D02*
D03*
X179921D02*
D03*
X156299Y905512D02*
D03*
X179921Y904528D02*
D03*
X181890Y903543D02*
D03*
X158268Y904527D02*
D03*
X156299Y901575D02*
D03*
X163189D02*
D03*
X165157D02*
D03*
X167126D02*
D03*
X169095D02*
D03*
X171063D02*
D03*
X173031D02*
D03*
X175000D02*
D03*
X176969D02*
D03*
X178937D02*
D03*
X181890D02*
D03*
X158268Y899606D02*
D03*
X162205D02*
D03*
X164173D02*
D03*
X166142D02*
D03*
X168110D02*
D03*
X170079D02*
D03*
X172047D02*
D03*
X174016D02*
D03*
X160236D02*
D03*
D41*
X444980Y778248D02*
D03*
Y780229D02*
D03*
Y782210D02*
D03*
Y784191D02*
D03*
Y786171D02*
D03*
Y788152D02*
D03*
Y790133D02*
D03*
Y792114D02*
D03*
Y794095D02*
D03*
X443012D02*
D03*
Y792114D02*
D03*
Y790133D02*
D03*
Y788152D02*
D03*
Y786171D02*
D03*
Y784191D02*
D03*
Y782210D02*
D03*
Y780229D02*
D03*
Y778248D02*
D03*
X441043Y794095D02*
D03*
Y792114D02*
D03*
Y790133D02*
D03*
Y788152D02*
D03*
Y786171D02*
D03*
Y784191D02*
D03*
Y782210D02*
D03*
Y780229D02*
D03*
Y778248D02*
D03*
X439075Y794095D02*
D03*
Y792114D02*
D03*
Y790133D02*
D03*
Y788152D02*
D03*
Y786171D02*
D03*
Y784191D02*
D03*
Y782210D02*
D03*
Y780229D02*
D03*
Y778248D02*
D03*
X437106Y794095D02*
D03*
Y792114D02*
D03*
Y790133D02*
D03*
Y788152D02*
D03*
Y786171D02*
D03*
Y784191D02*
D03*
Y782210D02*
D03*
Y780229D02*
D03*
Y778248D02*
D03*
X435138Y794095D02*
D03*
Y792114D02*
D03*
Y790133D02*
D03*
Y788152D02*
D03*
Y786171D02*
D03*
Y784191D02*
D03*
Y782210D02*
D03*
Y780229D02*
D03*
Y778248D02*
D03*
X433169Y794095D02*
D03*
Y792114D02*
D03*
Y790133D02*
D03*
Y788152D02*
D03*
Y786171D02*
D03*
Y784191D02*
D03*
Y782210D02*
D03*
Y780229D02*
D03*
Y778248D02*
D03*
X431201Y794095D02*
D03*
Y792114D02*
D03*
Y790133D02*
D03*
Y788152D02*
D03*
Y786171D02*
D03*
Y784191D02*
D03*
Y782210D02*
D03*
Y780229D02*
D03*
Y778248D02*
D03*
X429232Y794095D02*
D03*
Y792114D02*
D03*
Y790133D02*
D03*
Y788152D02*
D03*
Y786171D02*
D03*
Y784191D02*
D03*
Y782210D02*
D03*
Y780229D02*
D03*
Y778248D02*
D03*
X295374D02*
D03*
Y780229D02*
D03*
Y782210D02*
D03*
Y784191D02*
D03*
Y786171D02*
D03*
Y788152D02*
D03*
Y790133D02*
D03*
Y792114D02*
D03*
Y794095D02*
D03*
X297342Y778248D02*
D03*
Y780229D02*
D03*
Y782210D02*
D03*
Y784191D02*
D03*
Y786171D02*
D03*
Y788152D02*
D03*
Y790133D02*
D03*
Y792114D02*
D03*
Y794095D02*
D03*
X299311Y778248D02*
D03*
Y780229D02*
D03*
Y782210D02*
D03*
Y784191D02*
D03*
Y786171D02*
D03*
Y788152D02*
D03*
Y790133D02*
D03*
Y792114D02*
D03*
Y794095D02*
D03*
X301279Y778248D02*
D03*
Y780229D02*
D03*
Y782210D02*
D03*
Y784191D02*
D03*
Y786171D02*
D03*
Y788152D02*
D03*
Y790133D02*
D03*
Y792114D02*
D03*
Y794095D02*
D03*
X303248Y778248D02*
D03*
Y780229D02*
D03*
Y782210D02*
D03*
Y784191D02*
D03*
Y786171D02*
D03*
Y788152D02*
D03*
Y790133D02*
D03*
Y792114D02*
D03*
Y794095D02*
D03*
X305217Y778248D02*
D03*
Y780229D02*
D03*
Y782210D02*
D03*
Y784191D02*
D03*
Y786171D02*
D03*
Y788152D02*
D03*
Y790133D02*
D03*
Y792114D02*
D03*
Y794095D02*
D03*
X307185Y778248D02*
D03*
Y780229D02*
D03*
Y782210D02*
D03*
Y784191D02*
D03*
Y786171D02*
D03*
Y788152D02*
D03*
Y790133D02*
D03*
Y792114D02*
D03*
Y794095D02*
D03*
X309154Y778248D02*
D03*
Y780229D02*
D03*
Y782210D02*
D03*
Y784191D02*
D03*
Y786171D02*
D03*
Y788152D02*
D03*
Y790133D02*
D03*
Y792114D02*
D03*
Y794095D02*
D03*
X311122D02*
D03*
Y792114D02*
D03*
Y790133D02*
D03*
Y788152D02*
D03*
Y786171D02*
D03*
Y784191D02*
D03*
Y782210D02*
D03*
Y780229D02*
D03*
Y778248D02*
D03*
X161516D02*
D03*
Y780229D02*
D03*
Y782210D02*
D03*
Y784191D02*
D03*
Y786171D02*
D03*
Y788152D02*
D03*
Y790133D02*
D03*
Y792114D02*
D03*
Y794095D02*
D03*
X163484Y778248D02*
D03*
Y780229D02*
D03*
Y782210D02*
D03*
Y784191D02*
D03*
Y786171D02*
D03*
Y788152D02*
D03*
Y790133D02*
D03*
Y792114D02*
D03*
Y794095D02*
D03*
X165453Y778248D02*
D03*
Y780229D02*
D03*
Y782210D02*
D03*
Y784191D02*
D03*
Y786171D02*
D03*
Y788152D02*
D03*
Y790133D02*
D03*
Y792114D02*
D03*
Y794095D02*
D03*
X167421Y778248D02*
D03*
Y780229D02*
D03*
Y782210D02*
D03*
Y784191D02*
D03*
Y786171D02*
D03*
Y788152D02*
D03*
Y790133D02*
D03*
Y792114D02*
D03*
Y794095D02*
D03*
X169390Y778248D02*
D03*
Y780229D02*
D03*
Y782210D02*
D03*
Y784191D02*
D03*
Y786171D02*
D03*
Y788152D02*
D03*
Y790133D02*
D03*
Y792114D02*
D03*
Y794095D02*
D03*
X171358Y778248D02*
D03*
Y780229D02*
D03*
Y782210D02*
D03*
Y784191D02*
D03*
Y786171D02*
D03*
Y788152D02*
D03*
Y790133D02*
D03*
Y792114D02*
D03*
Y794095D02*
D03*
X173327Y778248D02*
D03*
Y780229D02*
D03*
Y782210D02*
D03*
Y784191D02*
D03*
Y786171D02*
D03*
Y788152D02*
D03*
Y790133D02*
D03*
Y792114D02*
D03*
Y794095D02*
D03*
X175295Y778248D02*
D03*
Y780229D02*
D03*
Y782210D02*
D03*
Y784191D02*
D03*
Y786171D02*
D03*
Y788152D02*
D03*
Y790133D02*
D03*
Y792114D02*
D03*
Y794095D02*
D03*
X177264D02*
D03*
Y792114D02*
D03*
Y790133D02*
D03*
Y788152D02*
D03*
Y786171D02*
D03*
Y784191D02*
D03*
Y782210D02*
D03*
Y780229D02*
D03*
Y778248D02*
D03*
X310925Y904429D02*
D03*
Y906410D02*
D03*
Y908391D02*
D03*
Y910372D02*
D03*
Y912352D02*
D03*
Y914333D02*
D03*
Y916314D02*
D03*
Y918295D02*
D03*
Y920276D02*
D03*
X308957D02*
D03*
Y918295D02*
D03*
Y916314D02*
D03*
Y914333D02*
D03*
Y912352D02*
D03*
Y910372D02*
D03*
Y908391D02*
D03*
Y906410D02*
D03*
Y904429D02*
D03*
X306988Y920276D02*
D03*
Y918295D02*
D03*
Y916314D02*
D03*
Y914333D02*
D03*
Y912352D02*
D03*
Y910372D02*
D03*
Y908391D02*
D03*
Y906410D02*
D03*
Y904429D02*
D03*
X305020Y920276D02*
D03*
Y918295D02*
D03*
Y916314D02*
D03*
Y914333D02*
D03*
Y912352D02*
D03*
Y910372D02*
D03*
Y908391D02*
D03*
Y906410D02*
D03*
Y904429D02*
D03*
X303051Y920276D02*
D03*
Y918295D02*
D03*
Y916314D02*
D03*
Y914333D02*
D03*
Y912352D02*
D03*
Y910372D02*
D03*
Y908391D02*
D03*
Y906410D02*
D03*
Y904429D02*
D03*
X301083Y920276D02*
D03*
Y918295D02*
D03*
Y916314D02*
D03*
Y914333D02*
D03*
Y912352D02*
D03*
Y910372D02*
D03*
Y908391D02*
D03*
Y906410D02*
D03*
Y904429D02*
D03*
X299114Y920276D02*
D03*
Y918295D02*
D03*
Y916314D02*
D03*
Y914333D02*
D03*
Y912352D02*
D03*
Y910372D02*
D03*
Y908391D02*
D03*
Y906410D02*
D03*
Y904429D02*
D03*
X297146Y920276D02*
D03*
Y918295D02*
D03*
Y916314D02*
D03*
Y914333D02*
D03*
Y912352D02*
D03*
Y910372D02*
D03*
Y908391D02*
D03*
Y906410D02*
D03*
Y904429D02*
D03*
X295177Y920276D02*
D03*
Y918295D02*
D03*
Y916314D02*
D03*
Y914333D02*
D03*
Y912352D02*
D03*
Y910372D02*
D03*
Y908391D02*
D03*
Y906410D02*
D03*
Y904429D02*
D03*
X444783D02*
D03*
Y906410D02*
D03*
Y908391D02*
D03*
Y910372D02*
D03*
Y912352D02*
D03*
Y914333D02*
D03*
Y916314D02*
D03*
Y918295D02*
D03*
Y920276D02*
D03*
X442815D02*
D03*
Y918295D02*
D03*
Y916314D02*
D03*
Y914333D02*
D03*
Y912352D02*
D03*
Y910372D02*
D03*
Y908391D02*
D03*
Y906410D02*
D03*
Y904429D02*
D03*
X440846Y920276D02*
D03*
Y918295D02*
D03*
Y916314D02*
D03*
Y914333D02*
D03*
Y912352D02*
D03*
Y910372D02*
D03*
Y908391D02*
D03*
Y906410D02*
D03*
Y904429D02*
D03*
X438878Y920276D02*
D03*
Y918295D02*
D03*
Y916314D02*
D03*
Y914333D02*
D03*
Y912352D02*
D03*
Y910372D02*
D03*
Y908391D02*
D03*
Y906410D02*
D03*
Y904429D02*
D03*
X436909Y920276D02*
D03*
Y918295D02*
D03*
Y916314D02*
D03*
Y914333D02*
D03*
Y912352D02*
D03*
Y910372D02*
D03*
Y908391D02*
D03*
Y906410D02*
D03*
Y904429D02*
D03*
X434941Y920276D02*
D03*
Y918295D02*
D03*
Y916314D02*
D03*
Y914333D02*
D03*
Y912352D02*
D03*
Y910372D02*
D03*
Y908391D02*
D03*
Y906410D02*
D03*
Y904429D02*
D03*
X432972Y920276D02*
D03*
Y918295D02*
D03*
Y916314D02*
D03*
Y914333D02*
D03*
Y912352D02*
D03*
Y910372D02*
D03*
Y908391D02*
D03*
Y906410D02*
D03*
Y904429D02*
D03*
X431004Y920276D02*
D03*
Y918295D02*
D03*
Y916314D02*
D03*
Y914333D02*
D03*
Y912352D02*
D03*
Y910372D02*
D03*
Y908391D02*
D03*
Y906410D02*
D03*
Y904429D02*
D03*
X429035Y920276D02*
D03*
Y918295D02*
D03*
Y916314D02*
D03*
Y914333D02*
D03*
Y912352D02*
D03*
Y910372D02*
D03*
Y908391D02*
D03*
Y906410D02*
D03*
Y904429D02*
D03*
X176969D02*
D03*
Y906410D02*
D03*
Y908391D02*
D03*
Y910372D02*
D03*
Y912352D02*
D03*
Y914333D02*
D03*
Y916314D02*
D03*
Y918295D02*
D03*
Y920276D02*
D03*
X175000D02*
D03*
Y918295D02*
D03*
Y916314D02*
D03*
Y914333D02*
D03*
Y912352D02*
D03*
Y910372D02*
D03*
Y908391D02*
D03*
Y906410D02*
D03*
Y904429D02*
D03*
X173031Y920276D02*
D03*
Y918295D02*
D03*
Y916314D02*
D03*
Y914333D02*
D03*
Y912352D02*
D03*
Y910372D02*
D03*
Y908391D02*
D03*
Y906410D02*
D03*
Y904429D02*
D03*
X171063Y920276D02*
D03*
Y918295D02*
D03*
Y916314D02*
D03*
Y914333D02*
D03*
Y912352D02*
D03*
Y910372D02*
D03*
Y908391D02*
D03*
Y906410D02*
D03*
Y904429D02*
D03*
X169095Y920276D02*
D03*
Y918295D02*
D03*
Y916314D02*
D03*
Y914333D02*
D03*
Y912352D02*
D03*
Y910372D02*
D03*
Y908391D02*
D03*
Y906410D02*
D03*
Y904429D02*
D03*
X167126Y920276D02*
D03*
Y918295D02*
D03*
Y916314D02*
D03*
Y914333D02*
D03*
Y912352D02*
D03*
Y910372D02*
D03*
Y908391D02*
D03*
Y906410D02*
D03*
Y904429D02*
D03*
X165157Y920276D02*
D03*
Y918295D02*
D03*
Y916314D02*
D03*
Y914333D02*
D03*
Y912352D02*
D03*
Y910372D02*
D03*
Y908391D02*
D03*
Y906410D02*
D03*
Y904429D02*
D03*
X163189Y920276D02*
D03*
Y918295D02*
D03*
Y916314D02*
D03*
Y914333D02*
D03*
Y912352D02*
D03*
Y910372D02*
D03*
Y908391D02*
D03*
Y906410D02*
D03*
Y904429D02*
D03*
X161221Y920276D02*
D03*
Y918295D02*
D03*
Y916314D02*
D03*
Y914333D02*
D03*
Y912352D02*
D03*
Y910372D02*
D03*
Y908391D02*
D03*
Y906410D02*
D03*
Y904429D02*
D03*
D42*
X160209Y370386D02*
D03*
Y366449D02*
D03*
X195501Y345433D02*
D03*
X121828Y339470D02*
D03*
Y343407D02*
D03*
X168609Y323449D02*
D03*
Y327386D02*
D03*
X158209Y323449D02*
D03*
Y327386D02*
D03*
X186701Y353307D02*
D03*
Y349370D02*
D03*
X175501Y353339D02*
D03*
Y349402D02*
D03*
X168709Y373949D02*
D03*
Y377886D02*
D03*
X78228Y368407D02*
D03*
Y364470D02*
D03*
X96709Y370386D02*
D03*
Y366449D02*
D03*
X92209Y370386D02*
D03*
Y366449D02*
D03*
D43*
X85685Y319917D02*
D03*
X98677D02*
D03*
D44*
X141996Y296543D02*
D03*
Y312291D02*
D03*
X115421Y296543D02*
D03*
Y312291D02*
D03*
D45*
X115728Y333518D02*
D03*
Y343360D02*
D03*
D46*
X174354Y373654D02*
D03*
Y378181D02*
D03*
X180063D02*
D03*
Y373654D02*
D03*
D47*
X88468Y301518D02*
D03*
X80988D02*
D03*
X84728Y311360D02*
D03*
D48*
X157328Y346370D02*
D03*
D49*
X168155Y333575D02*
D03*
X166186D02*
D03*
X164218D02*
D03*
X162249D02*
D03*
X160281D02*
D03*
X158312D02*
D03*
X156344D02*
D03*
X154375D02*
D03*
X152407D02*
D03*
X150438D02*
D03*
X148470D02*
D03*
X146501D02*
D03*
X170123Y335543D02*
D03*
X165202D02*
D03*
X163233D02*
D03*
X161265D02*
D03*
X159297D02*
D03*
X157328D02*
D03*
X155359D02*
D03*
X153391D02*
D03*
X149454D02*
D03*
X146501Y336528D02*
D03*
X170123Y337512D02*
D03*
X168155Y338496D02*
D03*
X146501D02*
D03*
X170123Y339480D02*
D03*
X144533D02*
D03*
X168155Y340465D02*
D03*
X170123Y341449D02*
D03*
X144533D02*
D03*
X168155Y342433D02*
D03*
X146501D02*
D03*
X170123Y343417D02*
D03*
X144533D02*
D03*
X168155Y344402D02*
D03*
X146501D02*
D03*
X170123Y345386D02*
D03*
X144533D02*
D03*
X146501Y346370D02*
D03*
X170123Y347354D02*
D03*
X144533D02*
D03*
X146501Y348339D02*
D03*
X170123Y349323D02*
D03*
X144533D02*
D03*
X168155Y350307D02*
D03*
X146501D02*
D03*
X144533Y351291D02*
D03*
X168155Y352276D02*
D03*
X146501D02*
D03*
X170123Y353260D02*
D03*
X146501Y354244D02*
D03*
X144533Y355228D02*
D03*
X168155Y354244D02*
D03*
X170123Y357197D02*
D03*
X163233D02*
D03*
X161265D02*
D03*
X159297D02*
D03*
X157328D02*
D03*
X155359D02*
D03*
X153391D02*
D03*
X151423D02*
D03*
X149454D02*
D03*
X147485D02*
D03*
X144533D02*
D03*
X168155Y359165D02*
D03*
X164218D02*
D03*
X162249D02*
D03*
X160281D02*
D03*
X158312D02*
D03*
X156344D02*
D03*
X154375D02*
D03*
X152407D02*
D03*
X166186D02*
D03*
D50*
X195501Y349370D02*
D03*
D51*
X138709Y371870D02*
D03*
Y365965D02*
D03*
X75177Y310870D02*
D03*
Y304965D02*
D03*
D52*
X188665Y308472D02*
D03*
X180791D02*
D03*
X182760D02*
D03*
X184728D02*
D03*
X186697D02*
D03*
D53*
X177248Y299417D02*
D03*
X192209D02*
D03*
D54*
X201308Y329619D02*
D03*
X189694D02*
D03*
D55*
X195501Y335721D02*
D03*
D56*
X134797Y361829D02*
D03*
X130621Y366005D02*
D03*
D57*
X180369Y336625D02*
D03*
X177585Y339409D02*
D03*
X128836Y360331D02*
D03*
X131620Y357547D02*
D03*
D58*
X96275Y376705D02*
D03*
X92731D02*
D03*
Y383004D02*
D03*
X96275D02*
D03*
D59*
X77898Y377354D02*
D03*
Y382854D02*
D03*
D60*
X86177Y337417D02*
D03*
X78697D02*
D03*
Y345488D02*
D03*
D61*
X85390D02*
D03*
M02*
